<svg id="emg6U3xHw7C1" xmlns="http://www.w3.org/2000/svg" xmlns:xlink="http://www.w3.org/1999/xlink" viewBox="0 0 900 900" shape-rendering="geometricPrecision" text-rendering="geometricPrecision">
<style><![CDATA[
#emg6U3xHw7C7_ts {animation: emg6U3xHw7C7_ts__ts 2000ms linear infinite normal forwards}@keyframes emg6U3xHw7C7_ts__ts { 0% {transform: translate(288.018997px,433.805496px) scale(1,1)} 5.128205% {transform: translate(288.018997px,433.805496px) scale(1,0.75)} 10.25641% {transform: translate(288.018997px,433.805496px) scale(1,0.25)} 15.384615% {transform: translate(288.018997px,433.805496px) scale(1,0)} 20.512821% {transform: translate(288.018997px,433.805496px) scale(1,0.25)} 25.641026% {transform: translate(288.018997px,433.805496px) scale(1,0.5)} 30.769231% {transform: translate(288.018997px,433.805496px) scale(1,0.75)} 35.897436% {transform: translate(288.018997px,433.805496px) scale(1,1)} 100% {transform: translate(288.018997px,433.805496px) scale(1,1)}} #emg6U3xHw7C8 {animation: emg6U3xHw7C8_c_o 2000ms linear infinite normal forwards}@keyframes emg6U3xHw7C8_c_o { 0% {opacity: 1} 4.871795% {opacity: 1} 7.435897% {opacity: 1} 10% {opacity: 1} 12.564103% {opacity: 0} 17.692308% {opacity: 0} 20.25641% {opacity: 1} 25.384615% {opacity: 1} 35.641026% {opacity: 1} 100% {opacity: 1}} #emg6U3xHw7C13_ts {animation: emg6U3xHw7C13_ts__ts 2000ms linear infinite normal forwards}@keyframes emg6U3xHw7C13_ts__ts { 0% {transform: translate(513.614502px,433.011002px) scale(1,1)} 5.128205% {transform: translate(513.614502px,433.011002px) scale(1,0.75)} 10.25641% {transform: translate(513.614502px,433.011002px) scale(1,0.25)} 15.384615% {transform: translate(513.614502px,433.011002px) scale(1,0)} 20.512821% {transform: translate(513.614502px,433.011002px) scale(1,0.25)} 25.641026% {transform: translate(513.614502px,433.011002px) scale(1,0.5)} 30.769231% {transform: translate(513.614502px,433.011002px) scale(1,0.75)} 35.897436% {transform: translate(513.614502px,433.011002px) scale(1,1)} 100% {transform: translate(513.614502px,433.011002px) scale(1,1)}} #emg6U3xHw7C14 {animation: emg6U3xHw7C14_c_o 2000ms linear infinite normal forwards}@keyframes emg6U3xHw7C14_c_o { 0% {opacity: 1} 0.25641% {opacity: 1} 5.128205% {opacity: 1} 7.692308% {opacity: 1} 10.25641% {opacity: 1} 12.820513% {opacity: 0} 17.948718% {opacity: 0} 20.512821% {opacity: 1} 25.641026% {opacity: 1} 35.897436% {opacity: 1} 100% {opacity: 1}}
]]></style>
<defs><linearGradient id="emg6U3xHw7C12-fill" x1="437.544" y1="456.797" x2="479.564" y2="105.971" spreadMethod="pad" gradientUnits="userSpaceOnUse" gradientTransform="translate(0 0)"><stop id="emg6U3xHw7C12-fill-0" offset="50.7569%" stop-color="rgba(4,4,4,0)"/><stop id="emg6U3xHw7C12-fill-1" offset="100%" stop-color="#040404"/></linearGradient></defs><g style="mix-blend-mode:darken"><path style="mix-blend-mode:color-burn" d="M890,450c0,243.005-196.995,440-440,440s-440-196.995-440-440s196.995-440,440-440s440,196.995,440,440Z" fill="#F2DD6E"/><path d="M890,450c0,243.005-196.995,440-440,440s-440-196.995-440-440s196.995-440,440-440s440,196.995,440,440Z" fill="none" stroke="#000" stroke-width="20"/></g><path d="M698.568,581.65c25.52-33.032,33.592-77.404,22.916-116.845-2.344-8.875-5.208-19.475-11.979-26.131-6.25-6.162-15.364-5.669-22.916-1.972-19.01,9.121-28.905,31.307-29.947,50.535-.26,7.888-13.28,7.888-13.02,0c.781-14.544,5.208-28.842,13.802-41.167c7.551-10.847,18.489-20.461,32.29-23.665c8.854-1.972,17.187-.493,24.218,3.944c2.864-10.6,4.948-21.2,6.25-32.046c5.989-54.479-7.292-110.683-34.374-159.245-24.739-44.125-61.196-82.088-109.111-103.781-42.967-19.72-92.184-27.116-140.099-24.897-48.436,1.972-97.132,14.051-139.057,37.716-20.312,11.339-38.541,25.144-54.165,41.906-18.489,19.721-32.03,43.633-41.405,68.777-11.197,30.813-16.145,63.106-19.27,95.399-1.562,16.762-2.604,33.525-3.906,50.288-1.042,16.023-2.604,32.046-3.906,48.069-4.427,59.902,7.812,120.789,33.853,175.515c13.281,27.609,29.686,53.739,49.477,77.403c20.052,23.912,43.488,47.084,70.831,63.353c14.583,8.628,30.468,15.037,47.655,17.01c17.186,2.218,34.634.493,51.3-3.698c34.374-8.628,64.32-27.609,91.403-48.562c13.801-10.6,27.082-21.693,40.363-33.033c11.979-10.107,23.957-20.707,34.894-31.799c21.354-21.693,39.582-46.837,46.093-76.418c1.562-6.656,13.28-5.177,12.76,1.479.26.493.52.986.781,1.232.521.74.781,1.233,1.302,1.972c1.302,1.479,3.125,2.712,4.948,3.451c3.906,1.973,8.333,2.466,12.499,1.973c10.937-.986,19.791-9.121,25.52-16.763Z" fill="#c68d2b"/><path d="M734.333,467.457c-2.335-10.115-5.448-21.218-11.155-30.1.259-.493.519-.987.778-1.727c16.603-54.772,10.636-114.48-9.858-167.525-19.975-51.811-53.958-100.416-102.469-131.502-40.988-26.4-90.536-39.4758-139.566-42.1897-51.106-3.2074-102.989,4.9344-150.203,24.4257-45.397,18.75-86.126,49.344-111.289,90.3-36.059,58.966-39.431,128.788-44.101,195.404-1.037,16.531-2.853,32.814-3.891,49.345-.778,15.296-.778,30.84.519,46.136c2.594,31.334,9.079,62.174,19.456,92.028c20.753,59.459,56.553,114.232,104.545,157.161c26.201,23.439,56.812,42.93,93.389,46.137c36.578,3.454,73.157-8.635,104.286-26.399c31.13-17.764,58.629-41.203,85.608-64.394c24.385-20.972,48.511-43.423,65.373-70.563c5.707-9.129,10.117-18.997,13.489-28.866c3.632,2.714,8.042,4.687,12.712,5.674c12.192,2.714,23.866-1.233,33.464-8.388c9.858-7.402,16.862-17.764,22.829-28.126c6.226-10.609,10.895-22.205,14.268-34.048c6.485-23.685,7.263-48.851,1.816-72.783ZM660.14,597.233c-1.816-.987-3.632-1.974-4.929-3.454-.519-.494-1.038-1.234-1.297-1.974-.26-.494-.519-.74-.778-1.234.518-6.661-11.155-8.142-12.712-1.48-6.485,29.606-24.644,54.772-45.916,76.484-10.896,11.102-22.829,21.711-34.762,31.827-13.23,11.102-26.461,22.451-40.21,33.06-26.979,20.972-57.071,40.216-91.055,48.604-16.603,4.195-33.984,5.922-51.106,3.701-17.121-2.22-32.945-8.388-47.473-17.024-27.238-16.283-50.586-39.722-70.561-63.407-19.716-23.685-36.318-49.838-49.289-77.471-26.46-55.018-38.393-115.959-34.243-176.159c1.038-16.036,2.594-32.073,3.891-48.11c1.038-16.777,2.335-33.554,3.892-50.331c3.113-32.322,8.301-64.643,19.456-95.483c9.079-25.165,22.569-49.097,41.247-68.835c15.565-16.777,33.724-30.594,53.959-41.943c41.506-23.438,90.017-35.528,138.269-37.748c47.733-1.974,96.762,5.428,139.566,24.919c47.733,21.958,84.051,59.706,108.695,104.363c26.72,48.357,39.95,104.61,34.243,159.383-1.297,10.856-3.372,21.465-6.226,32.074-7.004-4.441-15.305-5.921-24.125-3.948-13.749,2.961-24.645,12.83-32.168,23.686-8.561,12.089-13.23,26.646-13.749,41.202-.26,7.895,12.711,7.895,12.971,0c1.037-19.244,10.895-41.449,29.833-50.578c7.523-3.701,16.602-4.194,22.828,1.974c6.745,6.661,9.599,17.27,11.933,26.152c10.636,39.476,2.595,84.132-22.828,116.946-5.967,7.649-14.528,15.791-24.904,17.024-4.151.247-8.561-.493-12.452-2.22Z"/><g id="emg6U3xHw7C7_ts" transform="translate(288.018997,433.805496) scale(1,1)"><path d="M344.882,423.806c0,25.309-25.439,45.835-56.863,45.835s-56.863-20.526-56.863-45.835c0-25.31,25.439-25.836,56.863-25.836s56.863.526,56.863,25.836Z" transform="translate(-288.018997,-433.805496)" fill="#fff" stroke="#000" stroke-width="10" stroke-miterlimit="10"/></g><path id="emg6U3xHw7C8" d="M291.924,443.645c5.045,0,9.135-4.09,9.135-9.135s-4.09-9.135-9.135-9.135-9.135,4.09-9.135,9.135s4.09,9.135,9.135,9.135Z"/><path d="M234.359,326.003c-18.104,10.674-23.447,20.065-23.856,23.427c11.916-7.752,41.903-22.731,66.527-20.633c24.624,2.097,39.593,3.805,44,4.397c7.393-.29,22.528-2.568,23.923-9.362c1.396-6.793-5.819-8.865-9.601-9.051l-71.892-1.036c-7.027-.101-6.472-1.083-29.101,12.258Z" stroke="#000" stroke-width="10"/><path d="M556.953,323.194c18.178,10.545,23.588,19.898,24.021,23.256-11.97-7.666-42.064-22.432-66.672-20.16-24.608,2.273-39.565,4.087-43.967,4.71-7.395-.238-22.546-2.408-23.99-9.192-1.443-6.784,5.757-8.906,9.537-9.12l71.883-1.545c7.026-.151,6.464-1.13,29.188,12.051Z" transform="translate(0-1)" stroke="#000" stroke-width="10"/><path d="M622.771,631.112c8.341-7.546,17.873-32.845,17.873-42.498c0-5.382,11.68-92.145,6.752-92.145c3.972-29.788-4.369-11.915-4.369-11.915s-19.477,60.963-96.895,98.897c-7.533,2.742-121.154,28.2-197.412,20.256-76.919-8.012-158.551-52.576-164.828-61.562-17.239-24.68-12.293-64.441-17.078-64.343-2.511,11.883,6.258,27.999,6.455,33.381c3.766,37.934,23.016,101.005,23.016,101.005c0,4.571,19.399,49.36,34.734,70.384c19.668,26.965,60.253,57.558,97.445,89.538c12.973,8.226,47.701,19.637,93.734,13.901c62.353-7.77,78.85-30.453,123.934-69.162c40.46-34.787,66.596-65.627,76.639-85.737Z" fill="#040404" fill-opacity="0.1"/><path d="M217.651,215.666c-9.179,6.501-29.692,62.311-30.839,71.895-.64,5.344-4.328,21.007-10.467,44.875-7.486,29.104-6.355,59.576-6.355,59.576s11.956-94.666,93.336-123.124c7.806-1.827,194.116-9.807,268.888,7.149c75.42,17.103,123.918,80.49,129.082,90.159c14.183,26.555-18.746,115.254-13.984,115.726c3.906-11.5,26.646-44.428,27.091-49.795c29.391-10.724,43.689,0,43.689,0c15.094-108.032-13.752-154.961-17.475-180.715-4.766-32.966-66.329-88.57-108.826-119.153-87.379-28.199-122.809-28.42-169.197-28.199-62.835.299-97.191,16.177-146.558,49.25-44.31,29.729-46.021,43.583-58.385,62.356Z" fill="url(#emg6U3xHw7C12-fill)" fill-opacity="0.4"/><g id="emg6U3xHw7C13_ts" transform="translate(513.614502,433.011002) scale(1,1)"><path d="M570.477,423.806c0,25.31-25.438,45.835-56.862,45.835s-56.863-20.525-56.863-45.835s25.439-27.425,56.863-27.425s56.862,2.115,56.862,27.425Z" transform="translate(-513.614502,-433.011002)" fill="#fff" stroke="#000" stroke-width="8" stroke-miterlimit="10"/></g><path id="emg6U3xHw7C14" d="M512.754,440.468c5.045,0,9.135-4.09,9.135-9.135s-4.09-9.135-9.135-9.135-9.135,4.09-9.135,9.135s4.09,9.135,9.135,9.135Z"/><path d="M265.111,364.23c-33.194,2.207-56.062,20.972-63.346,30.078c4.205,0,7.838,27.962,9.129,41.944c2.12,13.521,12.392,44.979,36.513,62.64c24.121,17.66,50.437,16.372,60.58,13.521c5.901-1.012,22.682-8.003,42.599-27.871s24.527-61.444,24.342-79.748l-24.342-24.008c-14.576-12.051-52.281-18.764-85.475-16.556Z" fill="#aaa3a3" fill-opacity="0.41" stroke="#170c01" stroke-width="20"/><path d="M376.522,407.502c7.913-12.549,25.442-30.466,46.867-6.371" fill="none" stroke="#170c01" stroke-width="15"/><path d="M536.39,365.955c33.194,2.208,56.061,20.972,63.345,30.078-4.204,0-7.837,27.963-9.128,41.944-2.121,13.521-12.393,44.979-36.514,62.64-24.121,17.66-50.437,16.373-60.579,13.521-5.901-1.012-28.024-9.725-42.6-27.87-17.617-21.933-24.526-61.444-24.342-79.749l24.342-24.007c15.768-16.557,52.281-18.765,85.476-16.557Z" fill="#aaa3a3" fill-opacity="0.41" stroke="#170c01" stroke-width="20"/><path d="M676.787,588.614c4.826,0,8.738-4.09,8.738-9.135s-3.912-9.135-8.738-9.135-8.738,4.09-8.738,9.135s3.912,9.135,8.738,9.135Z"/><path d="M687.114,458.341c6.39,1.226,11.723,12.898,13.905,20.075c2.317,7.623,4.227,14.815,5.222,22.879.847,6.867,2.854,7.09,2.854,20.455-8.076,35.885-14.038,29.655-14.038,35.885" fill="none" stroke="#000" stroke-width="6" stroke-linecap="round"/><path d="M686.61,522.683c0,2.267-.264,4.512-.264,6.764c0,1.6-.069,3.218.015,4.816.08,1.521.78,2.836,1.303,4.231" fill="none" stroke="#000" stroke-width="6" stroke-linecap="round"/><path d="M206.647,399.999l-37.45-2.029" fill="none" stroke="#170c01" stroke-width="10"/><path d="M399.318,432.737c-14.619,25.139-29.469,50.277-44.32,75.228-3.712,6.191-7.193,12.382-10.906,18.573-3.48,5.815-6.497,11.819-7.657,18.197-1.16,6.003,0,12.382,4.177,17.635c3.712,4.315,8.817,7.504,14.618,9.567c15.315,5.629,32.486,3.19,48.033,7.692c3.016.938,6.265-.938,7.193-3.189.928-2.627-1.16-4.878-3.945-5.816-13.226-3.752-27.845-2.251-41.303-5.628-4.873-1.313-9.746-3.189-13.226-6.378-3.945-3.565-4.641-8.255-3.945-12.945c1.16-5.44,3.945-10.693,6.961-15.571c3.481-5.815,6.729-11.631,10.21-17.259c6.961-11.819,13.922-23.638,20.884-35.457c7.889-13.32,15.546-26.452,23.436-39.772c1.392-2.251.696-5.065-2.089-6.378-2.784-1.313-6.729-.75-8.121,1.501Z"/><path d="M715.71,422.595L604.501,399.559" fill="none" stroke="#170c01" stroke-width="10"/><g><path d="M363.813,669.638c17.343,5.958,60.768,12.074,95.719-11.121" fill="none" stroke="#000" stroke-width="9" stroke-linecap="round"/></g></svg>
