<svg width="900" height="900" viewBox="0 0 900 900" fill="none" xmlns="http://www.w3.org/2000/svg">
<g style="mix-blend-mode:darken">
<path d="M890 450C890 693.005 693.005 890 450 890C206.995 890 10 693.005 10 450C10 206.995 206.995 10 450 10C693.005 10 890 206.995 890 450Z" fill="#E0CB51" style="mix-blend-mode:color-burn"/>
<path d="M890 450C890 693.005 693.005 890 450 890C206.995 890 10 693.005 10 450C10 206.995 206.995 10 450 10C693.005 10 890 206.995 890 450Z" stroke="black" stroke-width="20"/>
</g>
<path d="M698.568 581.65C724.088 548.618 732.161 504.246 721.484 464.805C719.14 455.93 716.276 445.33 709.505 438.674C703.255 432.512 694.141 433.005 686.589 436.702C667.579 445.823 657.684 468.009 656.642 487.237C656.382 495.125 643.362 495.125 643.622 487.237C644.403 472.693 648.83 458.395 657.424 446.07C664.975 435.223 675.913 425.609 689.714 422.405C698.568 420.433 706.901 421.912 713.932 426.349C716.797 415.749 718.88 405.149 720.182 394.303C726.171 339.824 712.89 283.62 685.808 235.058C661.069 190.933 624.612 152.97 576.697 131.277C533.73 111.557 484.513 104.161 436.598 106.38C388.162 108.352 339.466 120.431 297.541 144.096C277.229 155.435 259 169.24 243.376 186.002C224.887 205.723 211.346 229.635 201.971 254.779C190.774 285.592 185.826 317.885 182.701 350.178C181.139 366.94 180.097 383.703 178.795 400.466C177.753 416.489 176.191 432.512 174.889 448.535C170.462 508.437 182.701 569.324 208.742 624.049C222.023 651.659 238.428 677.789 258.219 701.453C278.271 725.365 301.707 748.537 329.05 764.806C343.633 773.434 359.518 779.844 376.705 781.816C393.891 784.034 411.339 782.309 428.005 778.118C462.379 769.49 492.325 750.509 519.408 729.556C533.209 718.956 546.49 707.863 559.771 696.523C571.75 686.416 583.728 675.816 594.665 664.724C616.019 643.031 634.247 617.887 640.758 588.306C642.32 581.65 654.038 583.129 653.518 589.785C653.778 590.278 654.038 590.771 654.299 591.017C654.82 591.757 655.08 592.25 655.601 592.989C656.903 594.468 658.726 595.701 660.548 596.44C664.455 598.413 668.882 598.906 673.048 598.413C683.985 597.427 692.839 589.292 698.568 581.65Z" fill="#C68D2B"/>
<path d="M734.333 467.457C731.998 457.342 728.885 446.239 723.178 437.357C723.437 436.864 723.697 436.37 723.956 435.63C740.559 380.858 734.592 321.15 714.098 268.105C694.123 216.294 660.14 167.689 611.629 136.603C570.641 110.203 521.093 97.1272 472.063 94.4133C420.957 91.2059 369.074 99.3477 321.86 118.839C276.463 137.589 235.734 168.183 210.571 209.139C174.512 268.105 171.14 337.927 166.47 404.543C165.433 421.074 163.617 437.357 162.579 453.888C161.801 469.184 161.801 484.728 163.098 500.024C165.692 531.358 172.177 562.198 182.554 592.052C203.307 651.511 239.107 706.284 287.099 749.213C313.3 772.652 343.911 792.143 380.488 795.35C417.066 798.804 453.645 786.715 484.774 768.951C515.904 751.187 543.403 727.748 570.382 704.557C594.767 683.585 618.893 661.133 635.755 633.994C641.462 624.865 645.872 614.997 649.244 605.128C652.876 607.842 657.286 609.815 661.956 610.802C674.148 613.516 685.822 609.569 695.42 602.414C705.278 595.012 712.282 584.65 718.249 574.288C724.475 563.679 729.144 552.083 732.517 540.24C739.002 516.555 739.781 491.389 734.333 467.457ZM660.14 597.233C658.324 596.246 656.508 595.259 655.211 593.779C654.692 593.285 654.173 592.545 653.914 591.805C653.654 591.311 653.395 591.065 653.136 590.571C653.654 583.91 641.981 582.429 640.424 589.091C633.939 618.697 615.78 643.863 594.508 665.575C583.612 676.677 571.679 687.286 559.746 697.402C546.516 708.504 533.285 719.853 519.536 730.462C492.557 751.434 462.465 770.678 428.481 779.066C411.878 783.261 394.497 784.988 377.375 782.767C360.254 780.547 344.43 774.379 329.902 765.743C302.664 749.46 279.316 726.021 259.341 702.336C239.625 678.651 223.023 652.498 210.052 624.865C183.592 569.847 171.659 508.906 175.809 448.706C176.847 432.67 178.403 416.633 179.7 400.596C180.738 383.819 182.035 367.042 183.592 350.265C186.705 317.943 191.893 285.622 203.048 254.782C212.127 229.617 225.617 205.685 244.295 185.947C259.86 169.17 278.019 155.353 298.254 144.004C339.76 120.566 388.271 108.476 436.523 106.256C484.256 104.282 533.285 111.684 576.089 131.175C623.822 153.133 660.14 190.881 684.784 235.538C711.504 283.895 724.734 340.148 719.027 394.921C717.73 405.777 715.655 416.386 712.801 426.995C705.797 422.554 697.496 421.074 688.676 423.047C674.927 426.008 664.031 435.877 656.508 446.733C647.947 458.822 643.278 473.379 642.759 487.935C642.499 495.83 655.47 495.83 655.73 487.935C656.767 468.691 666.625 446.486 685.562 437.357C693.086 433.656 702.165 433.163 708.391 439.331C715.136 445.992 717.99 456.601 720.324 465.483C730.96 504.959 722.919 549.615 697.496 582.429C691.529 590.078 682.968 598.22 672.592 599.453C668.441 599.7 664.031 598.96 660.14 597.233Z" fill="black"/>
<path d="M344.882 423.806C344.882 449.115 319.443 469.641 288.019 469.641C256.595 469.641 231.156 449.115 231.156 423.806C231.156 398.496 256.595 397.97 288.019 397.97C319.443 397.97 344.882 398.496 344.882 423.806Z" fill="white" stroke="black" stroke-width="10" stroke-miterlimit="10"/>
<path d="M291.924 443.645C296.969 443.645 301.059 439.555 301.059 434.51C301.059 429.465 296.969 425.375 291.924 425.375C286.879 425.375 282.789 429.465 282.789 434.51C282.789 439.555 286.879 443.645 291.924 443.645Z" fill="black"/>
<path d="M234.359 326.003C216.255 336.677 210.912 346.068 210.503 349.43C222.419 341.678 252.406 326.699 277.03 328.797C301.654 330.894 316.623 332.602 321.03 333.194C328.423 332.904 343.558 330.626 344.953 323.832C346.349 317.039 339.134 314.967 335.352 314.781L263.46 313.745C256.433 313.644 256.988 312.662 234.359 326.003Z" fill="black" stroke="black" stroke-width="10"/>
<path d="M556.953 323.194C575.131 333.739 580.541 343.092 580.974 346.45C569.004 338.784 538.91 324.018 514.302 326.29C489.694 328.563 474.737 330.377 470.335 331C462.94 330.762 447.789 328.592 446.345 321.808C444.902 315.024 452.102 312.902 455.882 312.688L527.765 311.143C534.791 310.992 534.229 310.013 556.953 323.194Z" fill="black" stroke="black" stroke-width="10"/>
<path d="M622.771 631.112C631.112 623.566 640.644 598.267 640.644 588.614C640.644 583.232 652.324 496.469 647.396 496.469C651.368 466.681 643.027 484.554 643.027 484.554C643.027 484.554 623.55 545.517 546.132 583.451C538.599 586.193 424.978 611.651 348.72 603.707C271.801 595.695 190.169 551.131 183.892 542.145C166.653 517.465 171.599 477.704 166.814 477.802C164.303 489.685 173.072 505.801 173.269 511.183C177.035 549.117 196.285 612.188 196.285 612.188C196.285 616.759 215.684 661.548 231.019 682.572C250.687 709.537 291.272 740.13 328.464 772.11C341.437 780.336 376.165 791.747 422.198 786.011C484.551 778.241 501.048 755.558 546.132 716.849C586.592 682.062 612.728 651.222 622.771 631.112Z" fill="#040404" fill-opacity="0.1"/>
<path d="M217.651 215.666C208.472 222.167 187.959 277.977 186.812 287.561C186.172 292.905 182.484 308.568 176.345 332.436C168.859 361.54 169.99 392.012 169.99 392.012C169.99 392.012 181.946 297.346 263.326 268.888C271.132 267.061 457.442 259.081 532.214 276.037C607.634 293.14 656.132 356.527 661.296 366.196C675.479 392.751 642.55 481.45 647.312 481.922C651.218 470.422 673.958 437.494 674.403 432.127C703.794 421.403 718.092 432.127 718.092 432.127C733.186 324.095 704.34 277.166 700.617 251.412C695.851 218.446 634.288 162.842 591.791 132.259C504.412 104.06 468.982 103.839 422.594 104.06C359.759 104.359 325.403 120.237 276.036 153.31C231.726 183.039 230.015 196.893 217.651 215.666Z" fill="url(#paint0_linear_292_2)" fill-opacity="0.4"/>
<path d="M570.477 423.806C570.477 449.116 545.039 469.641 513.615 469.641C482.191 469.641 456.752 449.116 456.752 423.806C456.752 398.496 482.191 396.381 513.615 396.381C545.039 396.381 570.477 398.496 570.477 423.806Z" fill="white" stroke="black" stroke-width="8" stroke-miterlimit="10"/>
<path d="M512.754 440.468C517.799 440.468 521.889 436.378 521.889 431.333C521.889 426.288 517.799 422.198 512.754 422.198C507.709 422.198 503.619 426.288 503.619 431.333C503.619 436.378 507.709 440.468 512.754 440.468Z" fill="black"/>
<path d="M265.111 364.23C231.917 366.437 209.049 385.202 201.765 394.308C205.97 394.308 209.603 422.27 210.894 436.252C213.014 449.773 223.286 481.231 247.407 498.892C271.528 516.552 297.844 515.264 307.987 512.413C313.888 511.401 330.669 504.41 350.586 484.542C370.503 464.674 375.113 423.098 374.928 404.794L350.586 380.786C336.01 368.735 298.305 362.022 265.111 364.23Z" fill="#AAA3A3" fill-opacity="0.41" stroke="#170C01" stroke-width="20"/>
<path d="M376.522 407.502C384.435 394.953 401.964 377.036 423.389 401.131" stroke="#170C01" stroke-width="15"/>
<path d="M536.39 365.955C569.584 368.163 592.451 386.927 599.735 396.033C595.531 396.033 591.898 423.996 590.607 437.977C588.486 451.498 578.214 482.956 554.093 500.617C529.972 518.277 503.656 516.99 493.514 514.138C487.613 513.126 465.49 504.413 450.914 486.268C433.297 464.335 426.388 424.824 426.572 406.519L450.914 382.512C466.682 365.955 503.195 363.747 536.39 365.955Z" fill="#AAA3A3" fill-opacity="0.41" stroke="#170C01" stroke-width="20"/>
<path d="M676.787 588.614C681.613 588.614 685.525 584.524 685.525 579.479C685.525 574.434 681.613 570.344 676.787 570.344C671.961 570.344 668.049 574.434 668.049 579.479C668.049 584.524 671.961 588.614 676.787 588.614Z" fill="black"/>
<path d="M687.114 458.341C693.504 459.567 698.837 471.239 701.019 478.416C703.336 486.039 705.246 493.231 706.241 501.295C707.088 508.162 709.095 508.385 709.095 521.75C701.019 557.635 695.057 551.405 695.057 557.635" stroke="black" stroke-width="6" stroke-linecap="round"/>
<path d="M686.61 522.683C686.61 524.95 686.346 527.195 686.346 529.447C686.346 531.047 686.277 532.665 686.361 534.263C686.441 535.784 687.141 537.099 687.664 538.494" stroke="black" stroke-width="6" stroke-linecap="round"/>
<path d="M206.647 399.999L169.197 397.97" stroke="#170C01" stroke-width="10"/>
<path d="M399.318 432.737C384.699 457.875 369.849 483.014 354.998 507.965C351.286 514.156 347.805 520.347 344.092 526.538C340.612 532.353 337.595 538.357 336.435 544.735C335.275 550.738 336.435 557.117 340.612 562.37C344.324 566.685 349.429 569.874 355.23 571.937C370.545 577.566 387.716 575.127 403.263 579.629C406.279 580.567 409.528 578.691 410.456 576.44C411.384 573.813 409.296 571.562 406.511 570.624C393.285 566.872 378.666 568.373 365.208 564.996C360.335 563.683 355.462 561.807 351.982 558.618C348.037 555.053 347.341 550.363 348.037 545.673C349.197 540.233 351.982 534.98 354.998 530.102C358.479 524.287 361.727 518.471 365.208 512.843C372.169 501.024 379.13 489.205 386.092 477.386C393.981 464.066 401.638 450.934 409.528 437.614C410.92 435.363 410.224 432.549 407.439 431.236C404.655 429.923 400.71 430.486 399.318 432.737Z" fill="black"/>
<path d="M715.71 422.595L604.501 399.559" stroke="#170C01" stroke-width="10"/>
<g filter="url(#filter0_d_292_2)">
<path d="M363.813 669.638C381.156 675.596 424.581 681.712 459.532 658.517" stroke="black" stroke-width="9" stroke-linecap="round"/>
</g>
<defs>
<filter id="filter0_d_292_2" x="355.312" y="654.017" width="112.721" height="33.5752" filterUnits="userSpaceOnUse" color-interpolation-filters="sRGB">
<feFlood flood-opacity="0" result="BackgroundImageFix"/>
<feColorMatrix in="SourceAlpha" type="matrix" values="0 0 0 0 0 0 0 0 0 0 0 0 0 0 0 0 0 0 127 0" result="hardAlpha"/>
<feOffset dy="4"/>
<feGaussianBlur stdDeviation="2"/>
<feComposite in2="hardAlpha" operator="out"/>
<feColorMatrix type="matrix" values="0 0 0 0 0 0 0 0 0 0 0 0 0 0 0 0 0 0 0.25 0"/>
<feBlend mode="normal" in2="BackgroundImageFix" result="effect1_dropShadow_292_2"/>
<feBlend mode="normal" in="SourceGraphic" in2="effect1_dropShadow_292_2" result="shape"/>
</filter>
<linearGradient id="paint0_linear_292_2" x1="437.544" y1="456.797" x2="479.564" y2="105.971" gradientUnits="userSpaceOnUse">
<stop offset="0.507569" stop-color="#040404" stop-opacity="0"/>
<stop offset="1" stop-color="#040404"/>
</linearGradient>
</defs>
</svg>
